<?xml version="1.0" standalone="no"?>
<!DOCTYPE svg PUBLIC "-//W3C//DTD SVG 20010904//EN"
 "http://www.w3.org/TR/2001/REC-SVG-20010904/DTD/svg10.dtd">
<svg version="1.0" xmlns="http://www.w3.org/2000/svg"
 width="512.000000pt" height="512.000000pt" viewBox="0 0 512.000000 512.000000"
 preserveAspectRatio="xMidYMid meet">
<metadata>
Created by potrace 1.11, written by Peter Selinger 2001-2013
</metadata>
<g transform="translate(0.000000,512.000000) scale(0.100000,-0.100000)"
fill="#000000" stroke="none">
<path d="M2502 5015 c-18 -8 -57 -35 -85 -59 -135 -115 -277 -145 -467 -98
-128 32 -193 1 -237 -113 -69 -182 -170 -274 -361 -325 -93 -25 -124 -46 -151
-99 -15 -28 -18 -49 -13 -91 11 -101 6 -203 -13 -260 -26 -80 -93 -174 -171
-240 -77 -65 -92 -154 -39 -230 67 -96 75 -111 96 -172 37 -110 29 -257 -19
-356 -30 -61 -13 -153 34 -193 9 -8 50 -32 89 -54 84 -46 131 -85 175 -146 55
-76 73 -130 96 -284 7 -47 77 -124 115 -126 13 -1 65 -2 114 -4 184 -4 302
-67 411 -220 45 -63 98 -95 153 -91 37 3 49 8 144 59 54 30 151 58 187 53 75
-9 120 -23 197 -63 80 -41 108 -48 174 -45 26 2 109 72 109 92 0 11 86 100
127 132 52 40 128 69 216 82 29 5 36 3 31 -6 -6 -10 -5 -10 7 -1 8 6 34 10 59
8 62 -5 111 10 148 45 32 30 42 58 62 170 26 152 118 274 257 345 87 45 96 53
124 112 22 48 20 91 -11 160 -35 80 -45 202 -22 293 14 58 57 142 102 200 31
39 49 85 44 114 -8 54 -21 74 -97 150 -45 45 -90 100 -101 121 -10 22 -22 48
-27 58 -21 41 -36 136 -32 212 3 44 5 90 5 102 0 13 4 21 8 18 15 -9 -31 70
-56 97 -14 15 -44 33 -67 39 -115 30 -150 43 -203 75 -96 58 -156 133 -201
250 -31 82 -60 117 -114 134 -40 14 -70 11 -179 -18 -29 -7 -176 -8 -205 -1
-54 13 -125 42 -125 50 0 5 -6 9 -13 9 -8 0 -40 23 -73 51 -88 78 -135 93
-202 64z m216 -545 c198 -27 413 -133 565 -279 130 -124 259 -347 291 -502 3
-13 8 -35 11 -49 3 -14 8 -54 10 -88 2 -35 5 -66 7 -68 6 -5 0 -131 -7 -179
-4 -22 -9 -53 -11 -70 -9 -56 -55 -188 -91 -259 -100 -200 -266 -367 -464
-466 -76 -39 -181 -78 -229 -86 -14 -3 -32 -7 -40 -9 -27 -8 -144 -18 -200
-18 -221 0 -443 75 -626 211 -418 311 -540 893 -282 1341 59 102 100 156 188
241 151 147 327 237 533 274 136 25 200 26 345 6z"/>
<path d="M2495 4289 c-95 -10 -128 -16 -198 -40 -105 -35 -222 -100 -288 -160
-15 -13 -35 -31 -45 -40 -47 -39 -123 -147 -167 -234 -143 -285 -109 -634 86
-890 115 -151 297 -269 483 -314 150 -36 382 -20 504 35 168 76 278 160 370
284 239 323 225 752 -35 1063 -130 156 -359 276 -558 293 -34 3 -66 6 -72 8
-5 1 -41 -1 -80 -5z"/>
<path d="M1621 1961 c-23 -6 -30 -20 -80 -156 -33 -89 -222 -587 -258 -680
-19 -49 -66 -173 -104 -275 -38 -102 -74 -193 -80 -203 -10 -18 -5 -18 98 -13
148 8 277 27 414 60 33 8 62 10 71 5 8 -5 35 -39 59 -76 88 -137 278 -357 294
-341 4 3 49 118 101 255 51 136 102 271 113 298 10 28 36 95 56 150 21 55 43
114 50 130 7 17 20 53 30 80 10 28 37 100 60 160 113 295 145 382 145 392 0 6
-7 13 -15 16 -16 7 -103 -20 -125 -38 -31 -26 -98 -54 -158 -65 -70 -14 -159
-2 -222 30 -50 26 -120 90 -159 146 -42 61 -80 93 -134 111 -47 17 -120 23
-156 14z"/>
<path d="M3390 1961 c-80 -17 -131 -56 -204 -158 -43 -60 -120 -114 -193 -136
-51 -15 -153 -17 -203 -3 -24 6 -27 2 -74 -126 -27 -73 -53 -144 -59 -158 -6
-14 -11 -27 -12 -30 0 -3 -5 -15 -9 -28 -4 -13 -3 -35 3 -50 6 -15 65 -171
131 -347 66 -176 127 -336 135 -355 7 -19 50 -132 95 -250 45 -118 85 -219 89
-223 17 -18 214 214 306 361 40 63 40 63 80 58 22 -3 51 -8 65 -11 71 -16 157
-32 220 -41 14 -2 80 -6 147 -10 l121 -7 -45 119 c-24 65 -50 135 -57 154 -33
89 -150 398 -162 425 -11 27 -51 133 -134 355 -116 311 -179 465 -191 466 -8
1 -30 -1 -49 -5z"/>
</g>
</svg>
